<svg xmlns="http://www.w3.org/2000/svg" xmlns:xlink="http://www.w3.org/1999/xlink" width="1080" zoomAndPan="magnify" viewBox="0 0 810 809.999993" height="1080" preserveAspectRatio="xMidYMid meet" version="1.0"><path fill="#000000" d="M 81 334.09375 L 27 334.09375 C 0 334.09375 0 351.761719 0 361.109375 L 0 550.214844 C 0 559.5625 0 577.230469 27 577.230469 L 81 577.230469 Z M 81 334.09375 " fill-opacity="1" fill-rule="nonzero"/><path fill="#000000" d="M 270 388.125 L 540 388.125 L 540 496.183594 L 270 496.183594 Z M 270 388.125 " fill-opacity="1" fill-rule="nonzero"/><path fill="#000000" d="M 783 334.09375 L 729 334.09375 L 729 577.230469 L 783 577.230469 C 810 577.230469 810 559.5625 810 550.214844 L 810 361.109375 C 810 351.761719 810 334.09375 783 334.09375 Z M 783 334.09375 " fill-opacity="1" fill-rule="nonzero"/><path fill="#000000" d="M 243 394.878906 L 243 280.0625 C 243 270.714844 243 253.046875 216 253.046875 L 135 253.046875 C 108 253.046875 108 270.714844 108 280.0625 L 108 604.246094 C 108 613.59375 108 631.261719 135 631.261719 L 216 631.261719 C 243 631.261719 243 613.59375 243 604.246094 Z M 243 394.878906 " fill-opacity="1" fill-rule="nonzero"/><path fill="#000000" d="M 702 563.722656 L 702 280.0625 C 702 270.714844 702 253.046875 675 253.046875 L 591.839844 253.046875 C 567 253.046875 567 270.714844 567 280.0625 L 567 604.246094 C 567 613.59375 567 631.261719 591.839844 631.261719 L 675 631.261719 C 702 631.261719 702 613.59375 702 604.246094 Z M 702 563.722656 " fill-opacity="1" fill-rule="nonzero"/></svg>